<?xml version="1.0" encoding="UTF-8" standalone="no"?>
<!-- Created with Inkscape (http://www.inkscape.org/) -->

<svg
   width="72.918694mm"
   height="73.248375mm"
   viewBox="0 0 72.918694 73.248375"
   version="1.1"
   id="svg1"
   xml:space="preserve"
   xmlns="http://www.w3.org/2000/svg"
   xmlns:svg="http://www.w3.org/2000/svg"><defs
     id="defs1" /><g
     id="layer1"
     style="display:inline"
     transform="translate(-68.343255,-56.114071)"><path
       style="fill:#d3d3d3;fill-opacity:1;stroke:none;stroke-width:6.9;stroke-linejoin:round;stroke-dasharray:none;stroke-dashoffset:0;stroke-opacity:1;paint-order:markers stroke fill"
       d="m 99.902369,106.79368 10.444761,-0.1111 0.0729,-20.12539 7.27648,0.03811 -4.89546,-8.113001 -15.723939,0.07016 -4.699875,8.009833 7.448855,0.02185 z"
       id="path13" /><path
       style="fill:#d3d3d3;fill-opacity:1;stroke:none;stroke-width:26.0787;stroke-linejoin:round;stroke-dasharray:none;stroke-dashoffset:0;stroke-opacity:1;paint-order:markers stroke fill"
       d="m 482.66955,366.99337 c -17.21335,-29.50882 -33.3884,-57.33499 -35.94454,-61.83593 l -4.64754,-8.18352 h 40.88767 40.88768 l 3.09393,9.26635 c 8.01539,24.00608 9.22487,55.8691 3.00097,79.05829 -2.91503,10.86087 -13.46436,35.5345 -15.13965,35.40982 -0.46283,-0.0344 -14.92516,-24.2062 -32.13852,-53.71501 z"
       id="path16"
       transform="scale(0.26458333)" /><path
       style="fill:#d3d3d3;fill-opacity:1;stroke:none;stroke-width:26.0787;stroke-linejoin:round;stroke-dasharray:none;stroke-dashoffset:0;stroke-opacity:1;paint-order:markers stroke fill"
       d="m 375.96508,282.0209 c 0.31079,-0.57378 9.20681,-16.25096 19.76894,-34.83817 l 19.20387,-33.79494 4.30754,0.86532 c 28.6643,5.75822 58.94738,21.18778 77.01844,39.24174 7.36628,7.35931 21.18015,26.1231 21.18015,28.76962 0,0.43981 -31.9599,0.79966 -71.022,0.79966 -39.0621,0 -70.76772,-0.46945 -70.45694,-1.04323 z"
       id="path17"
       transform="scale(0.26458333)" /><path
       style="fill:#d3d3d3;fill-opacity:1;stroke:none;stroke-width:26.0787;stroke-linejoin:round;stroke-dasharray:none;stroke-dashoffset:0;stroke-opacity:1;paint-order:markers stroke fill"
       d="m 308.86806,304.18297 c -10.2645,-17.35315 -19.52913,-32.91387 -20.58807,-34.57938 -1.8114,-2.84897 -1.2358,-3.72555 9.7253,-14.81073 20.2635,-20.4929 45.55481,-34.44825 72.51388,-40.01202 11.91901,-2.45983 27.30069,-3.54789 27.30069,-1.93118 0,0.53062 -68.87487,121.02501 -70.09577,122.63033 -0.10632,0.13979 -8.59153,-13.94387 -18.85603,-31.29702 z"
       id="path18"
       transform="scale(0.26458333)" /><path
       style="fill:#d3d3d3;fill-opacity:1;stroke:none;stroke-width:26.0787;stroke-linejoin:round;stroke-dasharray:none;stroke-dashoffset:0;stroke-opacity:1;paint-order:markers stroke fill"
       d="m 265.03213,396.08114 c -11.03445,-34.69422 -8.40945,-73.128 7.25424,-106.21212 l 5.21385,-11.01245 17.99934,30.96659 c 9.89964,17.03162 26.2872,45.20673 36.41681,62.61135 l 18.41746,31.64476 h -41.37895 -41.37895 z"
       id="path19"
       transform="scale(0.26458333)" /><path
       style="fill:#d3d3d3;fill-opacity:1;stroke:none;stroke-width:26.0787;stroke-linejoin:round;stroke-dasharray:none;stroke-dashoffset:0;stroke-opacity:1;paint-order:markers stroke fill"
       d="m 357.58649,483.92662 c -22.88797,-6.76444 -45.75107,-20.89138 -62.06785,-38.35126 -8.13231,-8.70204 -20.10489,-25.22423 -20.10489,-27.74481 0,-0.6999 30.70483,-1.23248 71.05582,-1.23248 44.02397,0 70.87944,0.50018 70.59216,1.31476 -0.25501,0.72312 -9.53979,16.68105 -20.63284,35.46207 -22.99212,38.92663 -19.58168,36.24413 -38.8424,30.55172 z"
       id="path20"
       transform="scale(0.26458333)" /><path
       style="fill:#d3d3d3;fill-opacity:1;stroke:none;stroke-width:26.0787;stroke-linejoin:round;stroke-dasharray:none;stroke-dashoffset:0;stroke-opacity:1;paint-order:markers stroke fill"
       d="m 427.44852,427.75017 c 19.27852,-33.64834 35.36482,-61.17672 35.74734,-61.17418 0.38251,0.003 9.91734,15.48365 21.1885,34.40246 l 20.49302,34.39783 -12.14715,11.89264 c -27.72677,27.14584 -59.57699,41.61037 -91.7103,41.64953 l -8.62325,0.0105 z"
       id="path21"
       transform="scale(0.26458333)" /><path
       style="fill:#d3d3d3;fill-opacity:1;stroke:none;stroke-width:26.0787;stroke-linejoin:round;stroke-dasharray:none;stroke-dashoffset:0;stroke-opacity:1;paint-order:markers stroke fill"
       d="m 378.34616,364.48504 v -38.20325 l -13.67691,-0.39641 -13.67691,-0.3964 8.42424,-14.28429 8.42424,-14.28429 29.14835,0.37451 29.14835,0.3745 8.05293,13.21429 c 4.42911,7.26787 8.07268,13.68376 8.09683,14.25753 0.0241,0.57378 -5.49444,1.04324 -12.26353,1.04324 h -12.30742 l -0.90687,14.82166 c -0.49878,8.15191 -0.90688,25.36527 -0.90688,38.25191 v 23.43025 h -18.77821 -18.77821 z"
       id="path22"
       transform="scale(0.26458333)" /></g></svg>
