<?xml version="1.0" encoding="UTF-8" standalone="no"?>
<!-- Created with Inkscape (http://www.inkscape.org/) -->

<svg
   width="72.997307mm"
   height="73.307831mm"
   viewBox="0 0 72.997307 73.307831"
   version="1.1"
   id="svg1"
   xml:space="preserve"
   xmlns="http://www.w3.org/2000/svg"
   xmlns:svg="http://www.w3.org/2000/svg"><defs
     id="defs1" /><g
     id="layer1"
     style="display:inline"
     transform="translate(-68.384615,-56.321836)"><path
       style="fill:#d3d3d3;fill-opacity:1;stroke:none;stroke-width:6.89999;stroke-linejoin:round;stroke-dasharray:none;stroke-dashoffset:0;stroke-opacity:1;paint-order:markers stroke fill"
       d="m 106.33901,88.889947 27.01605,-19.126059 1.46585,2.128927 c 3.79755,5.51535 6.44084,13.527058 6.55852,19.878588 0.0551,2.974798 -0.81801,10.020797 -1.25305,10.111917 -0.007,0.001 -33.78737,-12.993373 -33.78737,-12.993373 z"
       id="path16" /><path
       style="fill:#d3d3d3;fill-opacity:1;stroke:none;stroke-width:6.89999;stroke-linejoin:round;stroke-dasharray:none;stroke-dashoffset:0;stroke-opacity:1;paint-order:markers stroke fill"
       d="m 102.13751,89.951477 c -0.90219,-12.561562 -1.19522,-15.845482 -2.598862,-33.452933 5.006662,-0.41397 15.070622,-0.480085 23.615252,4.234372 2.41219,1.330913 7.29955,5.088468 7.49356,5.76128 0.0752,0.260921 -28.48019,23.871657 -28.50995,23.457281 z"
       id="path17" /><path
       style="fill:#d3d3d3;fill-opacity:1;stroke:none;stroke-width:6.89999;stroke-linejoin:round;stroke-dasharray:none;stroke-dashoffset:0;stroke-opacity:1;paint-order:markers stroke fill"
       d="m 71.460125,80.075029 c -0.800142,-0.397074 -0.587284,-0.856533 1.386669,-4.478197 3.649193,-6.695281 9.055835,-12.097132 15.501632,-15.487895 2.849784,-1.499108 6.680426,-2.903319 6.798944,-2.492311 0.0389,0.134897 6.23678,35.967319 6.04408,36.464933 -0.0452,0.116661 -12.419157,-5.415325 -29.731325,-14.00653 z"
       id="path18" /><path
       style="fill:#d3d3d3;fill-opacity:1;stroke:none;stroke-width:6.89999;stroke-linejoin:round;stroke-dasharray:none;stroke-dashoffset:0;stroke-opacity:1;paint-order:markers stroke fill"
       d="M 74.82175,113.93302 C 69.473156,105.9218 67.322995,95.958544 68.879766,86.399465 l 0.51819,-3.181855 c 13.295466,4.923555 34.682424,13.050614 34.682424,13.050614 L 76.054774,115.77986 Z"
       id="path19" /><path
       style="fill:#d3d3d3;fill-opacity:1;stroke:none;stroke-width:6.89999;stroke-linejoin:round;stroke-dasharray:none;stroke-dashoffset:0;stroke-opacity:1;paint-order:markers stroke fill"
       d="m 79.05542,118.70121 c -0.115944,-0.40209 28.43193,-23.737093 28.44213,-23.19874 0.41774,22.04962 0.29993,4.252241 1.53445,34.02847 -12.250278,1.12572 -29.068815,-7.68169 -29.976578,-10.82973 z"
       id="path20" /><path
       style="fill:#d3d3d3;fill-opacity:1;stroke:none;stroke-width:6.89999;stroke-linejoin:round;stroke-dasharray:none;stroke-dashoffset:0;stroke-opacity:1;paint-order:markers stroke fill"
       d="m 109.11012,91.764578 c 18.24232,8.784532 16.68873,7.462256 29.5669,14.575682 l -2.21628,3.91389 c -5.05883,8.93374 -12.09558,14.94585 -20.2618,17.31144 l -2.19147,0.63482 c -3.19704,-19.21297 -3.65159,-23.75027 -4.89735,-36.435832 z"
       id="path21" /></g></svg>
